# xmcd CD database file
#
# Track frame offsets:
#	150
#	15744
#	46398
#	61374
#	75029
#	87617
#	107553
#	120692
#	128762
#	143872
#
# Disc length: 2299 seconds
#
# Revision: 0
# Processed by: cddbd v1.4PL0 Copyright (c) Steve Scherf et al.
# Submitted via: CDex 1.50
#
DISCID=7c08f90a
DTITLE=Reza Manzoori - Ambient Womb
DYEAR=2003
DGENRE=New Age
TTITLE0=Union
TTITLE1=Arrival
TTITLE2=Origins
TTITLE3=Dolphins
TTITLE4=World outside
TTITLE5=Insignia
TTITLE6=Wave
TTITLE7=Valley
TTITLE8=Along the way
TTITLE9=Breath
EXTD=YEAR: 2003
EXTT0=
EXTT1=
EXTT2=
EXTT3=
EXTT4=
EXTT5=
EXTT6=
EXTT7=
EXTT8=
EXTT9=
PLAYORDER=
